<?xml version="1.0" encoding="utf-8"?>
<!-- Generator: Adobe Illustrator 27.5.0, SVG Export Plug-In . SVG Version: 6.00 Build 0)  -->
<svg version="1.1" xmlns="http://www.w3.org/2000/svg" xmlns:xlink="http://www.w3.org/1999/xlink" x="0px" y="0px"
	 viewBox="0 0 500 500" style="enable-background:new 0 0 500 500;" xml:space="preserve">
<g id="BACKGROUND">
	<g>
		<rect style="fill:#F8E7DB;" width="500" height="500"/>
		<g>
			<g>
				<defs>
					<path id="SVGID_1_" d="M396.26,141.025V125.27c-2.271-21.449-36.616-36.687-78.241-56.53
						c-30.741-14.654-34.688-23.024-34.688-23.024s-5.977,9.075-34.688,23.024c-41.456,20.142-75.535,35.081-77.806,56.53v15.755
						c-9.107,0-17.703,6.465-19.451,15.057v236.41h-10.219V92.767c0.8-0.722,6.808-6.51,4.117-15.158
						c-3.645-11.716-18.557-13.848-23.742-21.659c-5.185,7.811-20.097,9.942-23.742,21.659c-2.69,8.648,3.318,14.436,4.118,15.158
						v318.647h2.252h36.997h10.219h82.035h181.855V156.081C413.528,147.49,405.367,141.025,396.26,141.025z"/>
				</defs>
				<clipPath id="SVGID_00000064327449724903334700000007130671773759728049_">
					<use xlink:href="#SVGID_1_"  style="overflow:visible;"/>
				</clipPath>
				
					<rect x="82.211" y="26.673" style="clip-path:url(#SVGID_00000064327449724903334700000007130671773759728049_);fill:#332E66;" width="341.913" height="397.648"/>
				<path style="clip-path:url(#SVGID_00000064327449724903334700000007130671773759728049_);fill:#211E42;" d="M407.47,309.028
					l-2.777-42.094c1.277,0,2.312-1.035,2.312-2.312v-1.606c0-1.277-1.035-2.312-2.312-2.312h-0.411l-2.992-45.361h2.351v-4.709
					l1.053,0.004h0.002c0.987,0,1.922-0.562,2.289-1.479c0.459-1.148,0.08-2.231-0.679-2.882c1.416-1.825,2.51-4.769,0.614-8.094
					c-1.488-2.609-4.762-4.699-7.652-6.544c-1.177-0.751-2.734-1.746-3.712-2.585c1.314-0.736,2.214-2.125,2.214-3.735
					c0-1.984-1.357-3.64-3.186-4.134l-1.159-12.613l-1.064,12.613c-1.829,0.494-3.187,2.15-3.187,4.134
					c0,1.627,0.919,3.028,2.256,3.758c-0.986,0.825-2.523,1.793-3.688,2.525c-2.9,1.826-6.187,3.894-7.693,6.492
					c-1.8,3.109-0.963,5.897,0.309,7.745c-0.845,0.395-1.434,1.244-1.439,2.233c0,1.371,1.111,2.484,2.478,2.487l1.817,0.006v4.778
					h2.345l-3.087,45.361h-0.542c-1.277,0-2.312,1.035-2.312,2.312v1.606c0,1.277,1.035,2.312,2.312,2.312h0.118l-2.864,42.094
					h-15.433l-1.579-23.932h1.743v-3.492l0.781,0.003h0.001c0.738,0,1.435-0.426,1.703-1.113c0.33-0.845,0.05-1.641-0.51-2.121
					c1.05-1.353,1.861-3.536,0.455-6.002c-1.103-1.935-3.531-3.484-5.673-4.852c-0.873-0.557-2.027-1.294-2.752-1.917
					c0.974-0.546,1.642-1.576,1.642-2.77c0-1.471-1.006-2.699-2.362-3.065l-0.859-9.352l-0.789,9.352
					c-1.357,0.366-2.363,1.594-2.363,3.065c0,1.206,0.681,2.245,1.673,2.787c-0.731,0.612-1.871,1.329-2.734,1.872
					c-2.15,1.354-4.588,2.887-5.704,4.813c-1.334,2.306-0.714,4.372,0.229,5.743c-0.627,0.293-1.063,0.923-1.067,1.656
					c0,1.016,0.824,1.842,1.837,1.844l1.348,0.004v3.542h1.739l-1.628,23.932H333V294.7h-18.694
					c4.433-7.633,8.156-19.112,3.754-33.261c-9.777-31.43-47.837-38.8-64.865-57.966l-0.766-12.771
					c1.078-0.763,1.784-2.017,1.784-3.438c0-1.603-0.895-2.996-2.213-3.708L250,171.059l-1.999,12.496
					c-1.318,0.712-2.213,2.105-2.213,3.708c0,1.421,0.706,2.675,1.784,3.438l-0.766,12.771
					c-17.028,19.165-55.088,26.535-64.865,57.966c-4.402,14.149-0.679,25.628,3.754,33.261H167v14.328h-15.768l-1.579-23.932h1.743
					v-3.492l0.781,0.003h0.001c0.738,0,1.435-0.426,1.703-1.113c0.331-0.845,0.05-1.642-0.51-2.121
					c1.05-1.353,1.862-3.536,0.455-6.002c-1.103-1.935-3.531-3.484-5.674-4.852c-0.873-0.557-2.027-1.294-2.752-1.917
					c0.974-0.546,1.642-1.576,1.642-2.77c0-1.471-1.006-2.699-2.362-3.065l-0.86-9.352l-0.789,9.352
					c-1.356,0.366-2.363,1.594-2.363,3.065c0,1.206,0.681,2.245,1.673,2.787c-0.731,0.612-1.871,1.329-2.734,1.872
					c-2.15,1.354-4.588,2.887-5.704,4.813c-1.334,2.306-0.714,4.372,0.229,5.743c-0.627,0.293-1.063,0.923-1.067,1.656
					c0,1.016,0.824,1.842,1.838,1.844l1.348,0.004v3.542h1.739l-1.628,23.932h-15.519l-2.777-42.094
					c1.277,0,2.312-1.035,2.312-2.312v-1.606c0-1.277-1.035-2.312-2.312-2.312h-0.411l-2.992-45.361h2.351v-4.709l1.053,0.004h0.002
					c0.987,0,1.922-0.562,2.289-1.479c0.459-1.148,0.08-2.231-0.679-2.882c1.417-1.825,2.51-4.769,0.614-8.094
					c-1.487-2.609-4.762-4.699-7.652-6.544c-1.177-0.751-2.734-1.746-3.712-2.585c1.314-0.736,2.214-2.125,2.214-3.735
					c0-1.984-1.357-3.64-3.186-4.134l-1.159-12.613l-1.063,12.613c-1.829,0.494-3.187,2.15-3.187,4.134
					c0,1.627,0.919,3.028,2.256,3.758c-0.986,0.825-2.523,1.793-3.688,2.525c-2.9,1.826-6.187,3.894-7.693,6.492
					c-1.8,3.109-0.963,5.897,0.309,7.745c-0.846,0.395-1.434,1.244-1.439,2.233c0,1.371,1.111,2.484,2.478,2.487l1.817,0.006v4.778
					h2.345l-3.087,45.361h-0.542c-1.277,0-2.312,1.035-2.312,2.312v1.606c0,1.277,1.035,2.312,2.312,2.312h0.118l-2.864,42.094
					H61.174v95.7h377.653v-95.7H407.47z"/>
			</g>
			<polygon style="fill:#F8CB6E;" points="185.55,196.814 182.649,198.491 180.068,196.353 180.766,199.631 177.935,201.424 
				181.268,201.773 182.099,205.02 183.461,201.958 186.806,202.171 184.314,199.929 			"/>
			<polygon style="fill:#F8CB6E;" points="295.499,155.808 292.737,152.116 292.614,156.725 288.25,158.211 292.595,159.753 
				292.659,164.362 295.468,160.706 299.872,162.07 297.263,158.269 299.92,154.501 			"/>
			<polygon style="fill:#F8CB6E;" points="370.144,137.445 366.793,136.484 366.529,133.007 364.58,135.898 361.192,135.074 
				363.338,137.822 361.508,140.789 364.784,139.597 367.041,142.255 366.919,138.77 			"/>
			<polygon style="fill:#F8CB6E;" points="297.228,91.205 297.015,88.396 295.44,90.731 292.702,90.066 294.437,92.286 
				292.957,94.684 295.605,93.72 297.429,95.868 297.33,93.052 299.937,91.982 			"/>
			<polygon style="fill:#F8CB6E;" points="120.891,136.762 119.964,134.603 119.353,136.871 117.014,137.086 118.981,138.368 
				118.463,140.659 120.29,139.184 122.309,140.385 121.471,138.191 123.237,136.643 			"/>
			<path style="fill:#F8CB6E;" d="M234.04,137.86c-9.738,0-17.633-7.895-17.633-17.633c0-4.821,1.939-9.185,5.074-12.368
				c-9.474,2.327-16.504,10.873-16.504,21.064c0,11.981,9.713,21.694,21.694,21.694c11.425,0,20.78-8.834,21.625-20.042
				C245.091,134.983,239.908,137.86,234.04,137.86z"/>
		</g>
		<g>
			<g>
				<path style="fill:#489332;" d="M460.027,329.18c1.463-4.917,4.086-9.555,7.802-12.986c-5.817,2.457-12.207,1.35-18.146,3.005
					c-7.445,2.075-9.403,6.261-14.761,11.577c-4.423,4.389-9.615,4.522-14.189,8.163c-5.636,4.486-3.683,9.096-6.457,15.121
					c-4.331,9.407-16.782,9.355-22.31,19.361c-4.294,7.772-3.434,23.434-11.544,28.468c7.487-4.949,17.183-4.013,23.803-9.415
					c3.626-2.959,4.893-8.357,8.876-11.097c5.303-3.65,10.607-0.878,15.962-3.053c5.937-2.411,5.356-5.438,6.515-11.284
					c1.362-6.876,1.337-8.191,7.071-12.135C454.216,346.948,455.81,343.354,460.027,329.18z"/>
				<g style="opacity:0.59;">
					<path style="fill:#FFFFFF;" d="M452.36,327.151c-2.29,0.914-4.475,2.075-6.485,3.482c-2.011,1.408-3.833,3.066-5.486,4.874
						c-3.328,3.608-6.016,7.748-8.803,11.812c-2.728,4.152-6.166,7.778-9.52,11.369c-3.371,3.591-6.621,7.264-9.188,11.441
						c-2.658,4.119-4.995,8.479-7.828,12.56c-2.807,4.071-6.25,7.869-10.566,10.428c-4.268,2.616-9.1,4.105-13.957,4.986
						c-4.879,0.847-9.817,1.138-14.741,1.297c4.912-0.385,9.838-0.775,14.649-1.778c4.8-0.97,9.53-2.527,13.643-5.158
						c4.136-2.594,7.484-6.244,10.222-10.291c2.769-4.038,5.072-8.403,7.736-12.582c5.258-8.548,13.402-14.603,18.921-22.709
						c2.859-4.003,5.635-8.126,9.077-11.708C443.465,331.597,447.682,328.742,452.36,327.151z"/>
				</g>
				<path style="fill:#1F4E39;" d="M384.88,386.739c7.034-42.449,19.845-50.663,48.532-62.114
					c-5.037,6.556-10.022,13.881-12.854,21.795c-2.969,8.295-2.97,17.415-6.27,25.629c-6.537,16.269-23.975,23.108-30.115,40.386
					C376.884,407.857,383.727,393.699,384.88,386.739z"/>
				<path style="fill:#489332;" d="M380.192,422.274c8.608,0.686,17.088,2.755,25.77,2.172c11.676-0.785,19.058-4.337,30.002-7.184
					c13.298-3.459,29.368-6.436,41.407-0.236c-8.71-15.16-27.538-26.462-45.191-20.299c-10.996,3.839-18.677,14.104-29.771,17.936
					c-7.923,2.737-16.832,3.047-25.06,1.944C378.259,418.421,379.004,420.651,380.192,422.274z"/>
				<path style="fill:#398645;" d="M385.435,399.038c20.283-19.977,52.315-55.107,83.851-43.918
					c-17.645,1.328-21.857,21.767-35.824,28.981c-6.919,3.574-14.72,2.606-22.103,3.958
					C402.138,389.748,393.346,393.9,385.435,399.038z"/>
				<path style="fill:#95C75B;" d="M466.921,396.255c4.372-4.25,9.913-7.346,15.882-8.179
					c-15.249-3.867-22.282-16.597-39.207-11.914c-8.396,2.323-11.902,1.347-20.249,0.214c-10.074-1.367-11.303,1.786-17.959,8.652
					c-9.705,10.011-23.667-1.419-36.334,5.292c-9.254,4.903-17.876,23.784-29.519,22.865c10.126,0.428,17.678,7.971,26.879,8.977
					c7.124,0.779,12.949-5.541,20-5.541c6.589,0,9.934,4.422,15.313,7.407c16.186,8.982,14.039-11.975,27.377-13.686
					c6.609-0.848,12.283,3.661,19.288,1.648C456.567,409.641,461.068,401.946,466.921,396.255z"/>
				<g style="opacity:0.59;">
					<path style="fill:#FFFFFF;" d="M463.701,388.521c-2.641-0.778-5.444-0.826-8.124-0.347c-2.69,0.476-5.269,1.43-7.768,2.529
						c-5.007,2.172-9.781,5.016-15.128,6.562c-5.255,1.605-10.564,3.021-15.879,4.403c-5.33,1.366-10.624,2.697-16.023,3.924
						c-2.77,0.515-5.593,0.419-8.33,0.207c-2.744-0.221-5.45-0.427-8.167-0.292c-5.447,0.184-10.749,1.642-16.155,2.679
						c-5.485,0.999-11.015,0.658-16.477,0.865c-2.733,0.084-5.47,0.285-8.144,0.862c-2.667,0.573-5.273,1.543-7.565,3.066
						c2.23-1.612,4.829-2.681,7.506-3.324c2.681-0.655,5.437-0.934,8.182-1.093c5.484-0.303,11.018-0.06,16.35-1.129
						c5.33-1.143,10.703-2.596,16.263-2.834c5.558-0.382,11.06,1.044,16.356,0.013c10.656-2.405,21.33-5.091,31.868-8.079
						c5.267-1.421,10.066-4.176,15.154-6.276c2.547-1.039,5.181-1.933,7.916-2.341C458.259,387.494,461.093,387.639,463.701,388.521
						z"/>
				</g>
				<path style="fill:#398645;" d="M384.023,392.512c5.689-2.999,8.185-16.796,12.195-22.088c7.564-9.98,12.855-18.495,10.918-37.08
					c-10.595,11.779-21.487,8.032-29.383,15.027c-4.892,4.334-4.615,7.153-5.708,12.623c-1.689,8.446-3.946,3.305-8.939,8.172
					c-3.448,3.361-1.563,8.401-3.555,12.25c-2.581,4.985-5.772,4.06-9.626,7.233c-8.155,6.713-5.835,19.165-13.629,26.635
					c7.003,0.118,16.674,0.033,22.611-4.355c4.563-3.373,4.05-8.424,7.027-12.704C372.067,389.401,375.901,396.794,384.023,392.512z
					"/>
				<g style="opacity:0.59;">
					<path style="fill:#FFFFFF;" d="M396.541,351.929c-1.685,0.831-3.256,1.881-4.629,3.142c-1.374,1.262-2.536,2.735-3.521,4.313
						c-1.987,3.157-3.345,6.664-4.843,10.112c-0.76,1.733-1.627,3.448-2.79,4.988c-1.137,1.56-2.628,2.863-4.237,3.892
						c-1.605,1.045-3.273,1.902-4.863,2.875c-1.586,0.968-3.161,1.988-4.557,3.165c-2.834,2.355-4.97,5.447-6.926,8.625
						c-1.969,3.176-3.816,6.501-6.269,9.414c-2.413,2.932-5.31,5.441-8.455,7.525c-3.165,2.063-6.538,3.757-9.981,5.255
						c6.691-3.335,13.249-7.346,17.839-13.265c2.303-2.92,4.147-6.178,6.09-9.405c1.943-3.212,4.107-6.424,7.058-8.913
						c1.488-1.232,3.087-2.244,4.711-3.219c1.622-0.974,3.308-1.825,4.858-2.819c1.559-0.983,2.949-2.18,4.043-3.652
						c1.106-1.459,1.986-3.095,2.778-4.778c1.577-3.393,3.025-6.905,5.134-10.066C390.084,355.966,393.05,353.356,396.541,351.929z"
						/>
				</g>
			</g>
			<g>
				<path style="fill:#489332;" d="M67.548,328.174c-0.597-3.803-2.609-7.696-5.654-10.23c6.63,2.27,13.904,0.863,20.579,2.73
					c7.708,2.156,9.504,7.815,15.562,11.905c4.641,3.133,11.419,2.408,15.308,6.687c4.461,4.909,1.807,11.887,6.8,16.648
					c4.054,3.866,11.351,4.065,16.16,7.398c5.768,3.999,9.941,9.431,12.502,15.742c3.733,9.199,4.784,23.755,14.417,29.553
					c-9.415-6.095-19.459-6.752-29.363-10.879c-11.905-4.962-12.997-18.469-27.179-21.204c-5.124-0.988-12.168,0.887-16.126-3.593
					c-4.369-4.946,0.648-10.708-1.339-15.958c-2.285-6.038-9.571-5.781-14.137-9.33C68.007,342.143,68.819,336.273,67.548,328.174z"
					/>
				<g style="opacity:0.59;">
					<path style="fill:#FFFFFF;" d="M142.738,391.529c-3.892-1.011-7.709-2.391-11.278-4.301c-3.557-1.927-6.802-4.459-9.535-7.467
						c-2.755-2.998-4.918-6.47-6.869-10.001c-1.941-3.547-3.655-7.199-5.347-10.85c-1.664-3.639-3.402-7.274-5.928-10.325
						c-1.255-1.525-2.697-2.89-4.289-4.062c-1.593-1.177-3.319-2.154-5.107-3.056c-3.57-1.821-7.286-3.425-10.72-5.582
						c-3.426-2.156-6.427-5.01-8.606-8.399c1.193,1.621,2.529,3.129,4.014,4.47c1.486,1.341,3.125,2.5,4.848,3.511
						c3.439,2.044,7.169,3.561,10.803,5.309c3.677,1.67,7.145,4.059,9.758,7.228c2.643,3.15,4.439,6.846,6.136,10.491
						c3.342,7.28,6.66,14.698,11.881,20.76c2.609,3.009,5.736,5.559,9.201,7.551C135.148,388.834,138.909,390.302,142.738,391.529z"
						/>
				</g>
				<path style="fill:#1F4E39;" d="M142.804,386.549c-4.969-13.316-11.531-16.875-22.002-24.291
					c-12.73-9.017-22.886-22.957-39.863-14.3c6.43,4.097,13.096,9.031,17.762,15.272c4.9,6.556,7.056,14.935,12.233,21.318
					c10.478,12.92,28.709,11.934,39.157,25.995C155.762,403.612,145.364,393.411,142.804,386.549z"/>
				<path style="fill:#489332;" d="M159.073,426.626c-8.608,0.686-17.088,2.755-25.77,2.172
					c-11.676-0.785-20.058-7.337-31.002-10.184c-13.298-3.459-28.368,0.564-40.407,6.764c8.71-15.16,27.538-30.462,45.191-24.299
					c10.996,3.839,18.677,14.103,29.77,17.936c7.923,2.737,16.831,3.047,25.06,1.944
					C161.006,422.772,160.26,425.003,159.073,426.626z"/>
				<path style="fill:#398645;" d="M133.221,399.517c-20.562-19.014-50.815-49.154-81.206-38.169
					c16.969,0.445,21.555,20.675,35.636,26.354c7.872,3.175,16.917,1.458,25.077,3.292
					C119.897,392.604,126.863,395.748,133.221,399.517z"/>
				<path style="fill:#95C75B;" d="M73.445,399.353c-3.501-4.064-8.159-7.126-13.335-8.19c7.074-1.332,12.698-6.223,19.318-8.735
					c8.788-3.334,12.193-0.349,20.455,2.003c6.596,1.878,11.608-1.69,17.918-0.977c8.029,0.906,7.136,5.716,12.362,10.559
					c8.25,7.645,20.38-1.197,30.781,5.422c7.737,4.924,13.801,22.253,24.061,22.075c-9.476-0.27-17.885,6.963-26.515,6.291
					c-5.561-0.433-9.811-5.411-15.453-5.799c-7.335-0.505-11.137,6.024-17.644,7.394c-12.572,2.647-9.7-14.752-21.564-15.449
					c-5.445-0.32-9.808,2.551-15.411,0.499C81.331,411.851,78.146,404.81,73.445,399.353z"/>
				<path style="fill:#398645;" d="M136.209,391.433c-7.097-4.446-6.809-18.746-11.702-25.735
					c-4.603-6.575-7.785-7.133-9.883-16.226c-1.88-8.148-2.174-17.278-2.465-25.663c5.839,14.597,23.261,3.995,32.041,12.868
					c5.307,5.363,2.85,10.276,4.174,17.022c1.98,10.089,4.56,4.41,9.957,10.385c3.762,4.166,1.966,10.314,4.209,15.075
					c2.858,6.069,6.475,5.309,10.678,9.277c8.959,8.458,7.003,23.739,15.573,33.074c-7.654-0.211-17.33-0.878-23.875-5.9
					c-5.759-4.419-5.314-10.012-8.858-16.328C149.844,388.207,144.76,396.791,136.209,391.433z"/>
				<g style="opacity:0.59;">
					<path style="fill:#FFFFFF;" d="M186.806,419.937c-2.089,0.554-4.358,0.472-6.412-0.276c-2.063-0.731-3.89-2.024-5.468-3.521
						c-3.143-3.048-5.479-6.769-7.665-10.495c-2.189-3.741-4.095-7.624-6.154-11.407c-1.027-1.892-2.081-3.767-3.236-5.569
						c-1.157-1.794-2.414-3.535-3.918-4.992c-1.535-1.459-3.212-2.825-4.895-4.16c-1.686-1.339-3.42-2.651-5.014-4.157
						c-1.599-1.496-3.033-3.189-4.217-5.035c-1.197-1.839-2.14-3.818-2.982-5.819c-1.664-4.005-3.009-8.111-5.034-11.901
						c-1.008-1.886-2.195-3.699-3.742-5.183c-1.534-1.48-3.487-2.574-5.634-2.909c2.16,0.225,4.203,1.25,5.813,2.714
						c1.629,1.457,2.902,3.263,3.991,5.141c2.14,3.795,3.577,7.907,5.311,11.834c0.879,1.955,1.836,3.871,3,5.652
						c1.162,1.782,2.549,3.398,4.113,4.841c1.557,1.45,3.28,2.738,4.984,4.071c1.707,1.337,3.396,2.685,4.998,4.193
						c1.589,1.563,2.861,3.362,4.028,5.198c1.163,1.843,2.212,3.742,3.232,5.651c2.029,3.823,3.95,7.686,6.02,11.46
						c2.09,3.747,4.332,7.469,7.34,10.524c1.495,1.519,3.23,2.838,5.22,3.622C182.467,420.204,184.69,420.386,186.806,419.937z"/>
				</g>
				<g style="opacity:0.59;">
					<path style="fill:#FFFFFF;" d="M177.925,420.773c-4.065,0.221-8.111,0.659-12.204,0.678c-4.078,0.005-8.255-0.661-11.99-2.485
						c-1.867-0.902-3.572-2.094-5.219-3.276c-1.66-1.184-3.286-2.407-4.973-3.501c-1.683-1.095-3.455-2.036-5.368-2.525
						c-1.904-0.512-3.906-0.615-5.896-0.473c-1.971,0.122-4.023,0.521-6.121,0.471c-2.073-0.027-4.292-0.564-5.989-1.88
						c-1.703-1.28-2.999-2.86-4.483-4.216c-1.461-1.369-3.068-2.616-4.747-3.659c-1.703-0.961-3.715-1.343-5.707-1.582
						c-2.005-0.234-4.038-0.305-6.073-0.455c-2.03-0.168-4.086-0.379-6.05-1.003c-0.976-0.315-1.926-0.745-2.758-1.351
						c-0.83-0.606-1.524-1.392-2.005-2.29c1.049,1.779,2.912,2.863,4.84,3.387c1.946,0.54,3.979,0.676,6.002,0.767
						c2.027,0.096,4.066,0.126,6.11,0.316c2.032,0.2,4.125,0.532,6.012,1.537c1.805,1.056,3.451,2.292,4.964,3.699
						c1.525,1.38,2.858,2.958,4.43,4.113c1.559,1.182,3.5,1.638,5.472,1.66c1.981,0.035,3.952-0.368,6.039-0.513
						c2.064-0.132,4.182-0.011,6.209,0.55c2.038,0.538,3.9,1.552,5.612,2.684c3.431,2.254,6.511,4.973,10.039,6.854
						c3.572,1.845,7.616,2.587,11.657,2.683C169.781,421.11,173.854,420.769,177.925,420.773z"/>
				</g>
			</g>
		</g>
	</g>
</g>
<g id="OBJECTS">
	<g>
		<g>
			<polygon style="fill:#E0DCFF;" points="154.558,467.964 21.168,431.665 312.283,392.68 445.673,428.979 			"/>
			<path style="fill:#8B81C7;" d="M404.128,425.818l-198.534,26.105c-3.466,0.44-9.831-0.072-14.217-1.145l-1.434-0.351
				c-2.367,0.12-5.889-0.215-8.413-0.832l0,0c-1.496-0.366-3.724-0.493-4.459-0.249c-0.768,0.254-2.117,0.538-4.48,0.734
				c-5.328,0.443-16.591-1.072-32.476-3.342c-11.731-1.677-15.316-1.628-15.316-1.628s0.988-0.741-3.914-3.076
				c-7.079-3.372-11.778-5.738-7.709-6.488c1.805-0.333,3.756-0.469,5.368-0.517c1.542-0.046,1.563-0.459,0.068-0.825l0,0
				c-2.524-0.617-3.214-1.313-1.816-1.67l-1.434-0.351c-4.386-1.073-5.131-2.299-1.665-2.74l198.534-26.105L404.128,425.818z"/>
			<g>
				<path style="fill:#FFFFFF;" d="M312.283,392.68l133.39,36.299l-291.115,38.985l-133.39-36.299L312.283,392.68 M312.571,388.352
					l-0.852,0.114L20.604,427.45l-20.853,2.793l20.301,5.524l133.39,36.299l0.829,0.226l0.852-0.114l291.115-38.985l20.853-2.793
					l-20.301-5.525L313.4,388.577L312.571,388.352L312.571,388.352z"/>
			</g>
		</g>
		<path style="fill:#5D82E3;" d="M291.622,274.588c-2.105,1.369-6.057,8.79-7.33,16.448c-1.274,7.658-8.047,40.127-8.979,42.043
			c-0.933,1.916-2.618,3.987-7.851,9.52c-5.233,5.533-22.706,25.083-23.725,25.438c-1.019,0.354,3.693,2.323,6.678,4.362
			c2.985,2.039,5.15,4.893,5.15,4.893s17.78-7.786,27.488-15.639c13.556-10.967,14.241-20.084,15.856-33.483
			C300.524,314.771,291.622,274.588,291.622,274.588z"/>
		<path style="fill:#091C26;" d="M365.668,403.716c1.085,3.911,6.814,5.46,10.693,6.981s7.168,3.367,7.168,3.367
			s-4.167-9.628-5.368-17.425c-1.201-7.797-6.747-12.883-6.747-12.883L365.668,403.716z"/>
		<g>
			<path style="fill:#F7B2A1;" d="M308.628,416.334c6.821-1.526,12.976-1.531,19.824-3.568c6.849-2.038,15.576-0.823,21.422-0.543
				c5.846,0.281,11.763-0.759,11.875-2.873c0,0-2.154-1.77-4.18-2.035c-2.026-0.265-4.333-2.22-7.028-3.858
				c-2.695-1.638-17.065-14.188-22.558-15.396c-5.493-1.208-6.551,1.256-11.459,2.864c-4.908,1.608-14.577,5.997-15.133,6.159
				C300.835,397.246,308.628,416.334,308.628,416.334z"/>
			<path style="fill:#133A50;" d="M212.111,424.321c8.062,4.313,26.813,8.069,36.734,7.118c9.921-0.951,38.71-7.775,46.719-9.888
				c8.009-2.113,19.4-4.013,21.304-4.488c1.903-0.474,3.767-11.984,2.581-19.115c-1.186-7.13-1.735-8.571-1.735-8.571
				s-48.427,10.121-57.274,11.677c-8.847,1.555-36.918,5.582-36.918,5.582S204.049,420.008,212.111,424.321z"/>
			<path style="fill:#0F2C3D;" d="M240.294,419.108c11.652-2.271,23.282-3.389,35.139-4.483c14.787-1.364,29.382-3.819,44.04-5.843
				c0.423-3.567,0.506-7.638-0.025-10.833c-1.186-7.13-1.735-8.571-1.735-8.571s-48.427,10.121-57.274,11.677
				c-8.847,1.555-36.918,5.582-36.918,5.582s-11.516,7.914-13.16,13.529C220.025,423.224,230.523,421.012,240.294,419.108z"/>
			<path style="fill:#133A50;" d="M232.302,418.092l-20.191,6.229c0,0-7.075-5.559-7.133-10.371
				c-0.057-4.812,3.53-13.411,8.513-18.829s33.494-19.064,43.83-25.074c10.336-6.01,35.579-21.753,35.579-21.753l41.071-1.634
				c0,0,6.458,10.542,5.635,25.38c-0.439,7.921-8.322,14.685-14.712,17.683s-74.079,21.62-74.079,21.62L232.302,418.092z"/>
		</g>
		<path style="fill:#F7B2A1;" d="M348.7,430.294c6.822-1.527,11.188-3.265,18.037-5.303c6.849-2.037,17.363,0.911,23.209,1.192
			c5.846,0.281,11.763-0.759,11.875-2.873c0,0-2.154-1.77-4.18-2.035c-2.026-0.265-5.429-0.97-8.124-2.608
			c-1.387-0.843-6.067-4.327-10.145-8.247c-3.845-3.695-8.441-7.734-11.106-8.32c-5.493-1.208-5.031,5.106-9.938,6.714
			c-4.908,1.608-16.307,2.068-16.864,2.23C340.908,411.206,348.7,430.294,348.7,430.294z"/>
		<path style="fill:#133A50;" d="M252.183,438.281c8.062,4.313,26.813,8.069,36.734,7.118c9.921-0.951,38.71-7.775,46.719-9.888
			c8.009-2.113,19.4-4.013,21.304-4.488c1.903-0.474,3.767-11.985,2.581-19.115c-1.186-7.13-1.735-8.571-1.735-8.571
			s-48.427,10.121-57.274,11.677c-8.847,1.555-36.918,5.582-36.918,5.582S244.121,433.968,252.183,438.281z"/>
		<path style="fill:#0F2C3D;" d="M273.036,435.165c12.555-2.284,30.077-8.17,42.114-11.999c17.533-5.577,26.478-6.398,44.693-8.031
			c-0.055-1.132-0.155-2.225-0.322-3.227c-1.186-7.13-1.735-8.571-1.735-8.571s-48.427,10.121-57.274,11.677
			c-8.847,1.555-36.918,5.582-36.918,5.582s-13.471,8.274-11.902,13.735C258.195,434.715,267.278,436.213,273.036,435.165z"/>
		<path style="fill:#133A50;" d="M272.374,432.052l-20.191,6.229c0,0-7.075-5.559-7.133-10.371
			c-0.057-4.812,3.53-13.41,8.513-18.829c4.983-5.419,23.009-20.679,33.345-26.69c10.336-6.01,46.064-20.137,46.064-20.137
			l41.071-1.634c0,0,4.229,14.776,3.406,29.615c-0.247,4.448,0.647,11.078-5.186,15.051c-2.235,1.522-7.711,2.752-10.513,4.066
			c-6.39,2.998-70.862,15.952-70.862,15.952L272.374,432.052z"/>
		<path style="fill:none;stroke:#0F2C3D;stroke-miterlimit:10;" d="M248.878,435.165c-1.852-2.023-3.798-4.741-3.828-7.256
			c-0.057-4.812,3.53-13.41,8.513-18.829c4.983-5.419,23.009-20.679,33.345-26.69c10.336-6.01,46.064-20.137,46.064-20.137
			l41.071-1.634c0,0,4.229,14.776,3.406,29.615"/>
		<path style="fill:#5D82E3;" d="M296.319,267c-3.08,2.967-8.116,6.77-7.222,17.718c0.909,11.128,2.072,27.547,2.072,27.547
			l12.478-5.719L296.319,267z"/>
		<g>
			<path style="fill:#F7B2A1;" d="M334.28,224.932c0,0,1.791,8.55,3.082,12.881c1.291,4.331,2.281,6.599,3.108,7.9
				c1.832,2.885,12.473,11.423,12.473,11.423s-30.327,16.495-39.532,16.949c-9.205,0.454-4.474-16.984-4.474-16.984
				s6.958-7.092,8.215-10.791c1.256-3.699,1.399-14.239,1.399-14.239L334.28,224.932z"/>
			<path style="fill:#F7B2A1;" d="M301.596,199.021c-2.691,1.613-5.183,2.325-6.053,4.481c-1.598,3.959-1.915,11.958-1.278,15.909
				c0.637,3.95,1.737,11.436,2.811,16.03c1.074,4.594,6.305,13.32,7.692,14.087c1.387,0.766,10.282,0.782,12.993-0.5
				c2.71-1.282,17.78-12.345,16.585-22.239c0,0,3.332,0.871,6.962-8.244c0.947-2.378-7.664-17.129-8.981-19.798
				c-3.199-6.488-20.453,2.3-24.853,2.001C303.076,200.447,301.596,199.021,301.596,199.021z"/>
			
				<linearGradient id="SVGID_00000054959898016513966400000009208049711932785052_" gradientUnits="userSpaceOnUse" x1="268.9393" y1="152.6349" x2="234.0831" y2="187.0858" gradientTransform="matrix(-1.0498 0.0518 0.0626 0.9494 579.6535 35.4274)">
				<stop  offset="0" style="stop-color:#6E2D55"/>
				<stop  offset="1" style="stop-color:#523115"/>
			</linearGradient>
			<path style="fill:url(#SVGID_00000054959898016513966400000009208049711932785052_);" d="M308.234,205.133
				c11.93-3.589,14.727-1.188,15.072,4.925c0.117,2.078,4.812,4.977,5.131,6.952c0.318,1.975,2.897,2.895,2.897,2.895l0.956,5.926
				c0,0,0.17,2.811,0.896,4.934c0.725,2.123,3.492,5.324,3.492,5.324s-1.216-4.121,3.158-9.373
				c10.397-12.483-3.003-29.198-14.811-35.065c-6.106-3.033-14.205,0.333-18.884,5.722
				C300.64,203.709,303.323,206.61,308.234,205.133z"/>
			
				<linearGradient id="SVGID_00000044149591554641508900000014214675130570694828_" gradientUnits="userSpaceOnUse" x1="290.1917" y1="164.5587" x2="250.6613" y2="203.6294" gradientTransform="matrix(-1.0498 0.0518 0.0626 0.9494 579.6535 35.4274)">
				<stop  offset="0" style="stop-color:#6E2D55"/>
				<stop  offset="1" style="stop-color:#523115"/>
			</linearGradient>
			<path style="fill:url(#SVGID_00000044149591554641508900000014214675130570694828_);" d="M330.562,222.754
				c-0.419-3.424,0.236-8.112,0.236-8.112l-2.754,0.013c0,0-0.845,8.74-1.217,13.572c-0.372,4.831-2.218,7.11-5.237,6.587
				c-3.019-0.523-4.896-3.747-7.607-4.65c-2.711-0.902-6.767-1.592-10.257-0.703c-2.2,0.56-3.846,1.669-4.939,3.324
				c-0.973,1.475-1.24,4.794,0.016,8.909c1.256,4.115,2.832,7.589,7.254,9.089c4.422,1.5,11.262,0.877,16.321-1.918
				c5.059-2.796,8.336-7.764,8.929-11.144C331.902,234.339,330.981,226.178,330.562,222.754z M315.21,242.595
				c-2.216,0.887-6.065-0.457-6.661-1.662c-0.595-1.204-1.029-1.223-1.671-1.447c-0.642-0.224-1.131,0.934-2.072,2.465
				c-0.941,1.531-2.885,1.251-3.859-1.148c-0.974-2.4-0.882-4.361-0.139-6.294c0.83-2.159,4.731-3.53,9.702-2.923
				c4.971,0.607,5.964,2.614,6.55,4.015C317.647,237.001,317.426,241.708,315.21,242.595z"/>
		</g>
		<path style="fill:#304BC9;" d="M288.95,359.362c16.974,1.235,33.928,2.785,50.961,2.989c12.817,0.154,21.416-0.647,34.132-1.733
			c-0.813-11.122,2.365-23.241,1.245-34.425c-1.797-17.588,5.983-44.259-0.977-57.455c-1.834-3.477-26.973-17.187-26.973-17.187
			s-12.002,15.043-26.2,15.819c-13.233,0.729-11.489-12.278-11.489-12.278L296.319,267c0,0-3.757,17.002-4.874,36.061
			c-0.539,9.172-2.398,27.258-1.956,45.862C289.258,351.962,289.095,355.464,288.95,359.362z"/>
		<path style="fill:#FFFFFF;" d="M343.267,219.718c0,0-5.719-5.45-13.958-7.901c-7.774-2.312-15.667-3.694-23.789-3.527
			c-8.435,0.173-11.435,1.927-11.435,1.927s0.567-8.149,3.461-13.278c3.102-5.497,11.555-12.693,30.443-8.289
			c9.378,2.187,14.111,11.363,15.65,17.156C345.177,211.6,343.267,219.718,343.267,219.718z"/>
		<path style="fill:#F7B2A1;" d="M329.69,217.6c1.125-2.952,2.173-5.617,5.403-5.272c3.23,0.345,5.645,3.642,2.416,8.123
			c-3.229,4.481-5.219,5.379-5.219,5.379S329.359,218.469,329.69,217.6z"/>
		
			<linearGradient id="SVGID_00000119081037818262721060000012875359171326977184_" gradientUnits="userSpaceOnUse" x1="234.1038" y1="220.1016" x2="263.7897" y2="220.1016" gradientTransform="matrix(-1.0498 0.0518 0.0626 0.9494 579.6535 35.4274)">
			<stop  offset="0" style="stop-color:#EEEEEE"/>
			<stop  offset="1" style="stop-color:#D5D5D5"/>
		</linearGradient>
		<path style="fill:url(#SVGID_00000119081037818262721060000012875359171326977184_);" d="M347.342,251.551
			c0,0-6.581,7.94-14.597,13.003c-8.016,5.062-15.595,3.282-15.595,3.282l1.76-6.759c0,0,6.006-0.773,13.197-6.203
			c7.191-5.429,11.15-8.444,11.15-8.444L347.342,251.551z"/>
		
			<linearGradient id="SVGID_00000150795372207702467090000011984366698639334552_" gradientUnits="userSpaceOnUse" x1="263.7897" y1="222.3418" x2="272.2778" y2="222.3418" gradientTransform="matrix(-1.0498 0.0518 0.0626 0.9494 579.6535 35.4274)">
			<stop  offset="0" style="stop-color:#EEEEEE"/>
			<stop  offset="1" style="stop-color:#D5D5D5"/>
		</linearGradient>
		<path style="fill:url(#SVGID_00000150795372207702467090000011984366698639334552_);" d="M317.15,267.835l-1.156-7.293
			c0,0-3.684-4.537-3.902-7.81l-4.409,2.892c0,0-1.532,3.512,4.186,9.088C314.621,267.394,317.15,267.835,317.15,267.835z"/>
		<polyline style="fill:none;stroke:#4A74E3;stroke-miterlimit:10;" points="317.328,267.154 314.153,300.4 318.875,304.379 		"/>
		<path style="fill:#4A74E3;" d="M319.827,275.944c-0.044,0.835,0.668,1.547,1.592,1.592c0.923,0.044,1.708-0.596,1.752-1.431
			c0.044-0.835-0.668-1.547-1.592-1.592C320.657,274.469,319.872,275.109,319.827,275.944z"/>
		<path style="fill:#4A74E3;" d="M318.835,294.603c-0.044,0.835,0.668,1.547,1.592,1.592s1.708-0.596,1.752-1.431
			c0.044-0.835-0.668-1.547-1.592-1.592C319.664,293.128,318.88,293.769,318.835,294.603z"/>
		<path style="fill:#304BC9;" d="M288.252,338.91c-0.368,2.672-0.922,8.302-4.483,11.11c-5.813,4.584-14.096,8.905-21.381,11.076
			c-11.748,3.501-15.617,10.514-15.617,10.514s8.681,2.161,18.38,5.473c9.699,3.312,19.288,4.179,28.109,1.351
			c8.821-2.828,25.316,4.062,36.044,10.675c5.7,3.514,14.518,18.293,23.705,25.02c8.104,5.934,20.927,2.104,20.927,2.104
			s-4.517-1.889-4.37-10.965c0.126-7.728,2-13.721,2-13.721s4.164,10.017,5.851,13.901c1.943,4.474,6.112,8.618,6.112,8.618
			s-3.902-20.099-4.848-29.493c-0.946-9.395-1.223-31.36-0.835-38.658c0.388-7.298-3.161-22.103-3.161-22.103l-83.459,1.077
			C291.226,324.886,289.612,329.04,288.252,338.91z"/>
		<g>
			<path style="fill:#F7B2A1;" d="M307.673,377.612c0,0-17.435,10.063-20.68,11.652c-3.244,1.589-7.957,4.378-9.617,5.885
				c-1.66,1.507-2.153,4.181-2.153,4.181s-4.739,6.595-6.283,9.219c-1.544,2.623-2.178,4.655-1.17,5.497
				c1.008,0.842,2.451,0.118,2.451,0.118s-1.185,2.482-0.194,3.64c0.992,1.158,3.127,0.626,4.436-0.897
				c1.31-1.524,1.31-1.524,1.31-1.524s0.574,2.408,3.26,1.426c2.685-0.982,5.556-5.445,7.241-7.427c0,0-1.069,3.598-1.854,5.147
				c-0.785,1.549,1.458,2.292,3.118,0.785c1.66-1.507,4.372-6.295,7.825-8.51c3.453-2.214,6.724-7.611,9.211-11.458
				c2.487-3.847,17.706-12.754,17.706-12.754L307.673,377.612z"/>
			<path style="fill:#5D82E3;" d="M372.624,268.084c-14.653-2.919-22.039,8.782-24.691,20.789s-4.476,45.36-8.082,53.305
				c-3.999,8.81-15.363,19.979-23.783,26.855c-8.42,6.876-17.614,13.864-17.614,13.864s7.038,5.354,10.117,9.835
				c3.178,4.626,2.041,6.323,2.041,6.323s26.221-12.731,38.852-23.045s21.309-22.032,23.929-33.434S387.389,271.025,372.624,268.084
				z"/>
		</g>
		<path style="fill:#F7B2A1;" d="M246.929,366.692c0,0-7.768,7.675-12.552,10.153c-4.784,2.479-16.013,10.766-19.322,13.598
			c-3.31,2.832-6.45,9.55-5.975,10.444c0.475,0.895,2.806,0.247,2.806,0.247s-1.773,2.573-0.72,3.348
			c1.053,0.775,2.875-0.429,4.136-1.683c0,0,1.58,1.163,3.794-0.178c2.213-1.34,6.035-9.981,8.079-11.112
			c2.044-1.132,9.364-4.41,9.908-4.192c0.544,0.219-2.614,7.105-1.068,8.606c1.546,1.501,3.426,2.103,4.915-1.652
			c1.489-3.754,1.048-4.977,3.918-7.203c2.87-2.226,2.228-5.183,2.775-6.84c0.547-1.658,9.566-7.687,9.566-7.687L246.929,366.692z"
			/>
		<path style="fill:#5D82E3;" d="M268.871,341.101c-0.441,0.472-0.904,0.965-1.408,1.499c-5.233,5.533-22.706,25.083-23.725,25.438
			c-1.019,0.354,3.693,2.323,6.678,4.362c2.985,2.039,5.15,4.893,5.15,4.893s10.799-5.728,20.506-13.582
			c7.517-6.081,11.32-21.32,13.275-27.309C280.148,337.555,277.026,344.396,268.871,341.101z"/>
	</g>
</g>
</svg>
